<svg width="272" height="46" viewBox="0 0 272 46" fill="none" xmlns="http://www.w3.org/2000/svg">
<g clip-path="url(#clip0_464_10256)">
<path d="M106.823 4.68324C106.823 3.59498 107.257 2.55129 108.028 1.78178C108.8 1.01226 109.847 0.579948 110.938 0.579948C112.03 0.579948 113.076 1.01226 113.848 1.78178C114.62 2.55129 115.053 3.59498 115.053 4.68324C115.013 5.74501 114.562 6.75007 113.795 7.48723C113.028 8.22438 112.004 8.63623 110.938 8.63623C109.873 8.63623 108.849 8.22438 108.081 7.48723C107.314 6.75007 106.863 5.74501 106.823 4.68324Z" fill="#273B7D"/>
<path d="M171.749 32.049C171.749 29.7716 173.589 27.9314 175.855 27.9314C176.95 27.9314 178 28.365 178.773 29.1366C179.547 29.9083 179.982 30.9549 179.982 32.0462C179.982 33.1375 179.547 34.1841 178.773 34.9557C178 35.7274 176.95 36.1609 175.855 36.1609C173.592 36.1609 171.749 34.3178 171.749 32.0462" fill="#499FDD"/>
<path d="M36.9382 30.626C33.3963 30.626 30.9319 27.8199 30.9319 23.8081C30.9319 19.7991 33.3963 16.9959 36.941 16.9959C40.5029 16.9959 42.9931 19.7991 42.9931 23.8081C42.9931 27.8828 40.5575 30.626 36.9382 30.626ZM36.9382 11.0039C29.4418 11.0039 24 16.3902 24 23.8081C24 31.2289 29.4447 36.6123 36.9382 36.6123C44.4661 36.6123 49.9278 31.2289 49.9278 23.8109C49.9278 16.3902 44.4661 11.0039 36.941 11.0039H36.9382ZM96.5024 24.451C96.2415 23.9478 95.9117 23.4833 95.5224 23.0709L95.2931 22.8337L95.5339 22.6051C95.8778 22.2422 96.2302 21.8136 96.5683 21.3164L103.188 11.5096H95.1528L90.1809 19.1819C89.9 19.5934 89.3328 19.7991 88.4817 19.7991H87.3497V5.29469C87.3497 2.39438 85.5359 2.00005 83.5787 2.00005H80.2258L80.2344 36.2351H87.3525V25.9655H88.0203C88.8313 25.9655 89.3814 26.0597 89.6364 26.4998L93.5622 33.8892C94.6598 35.8951 95.7515 36.2351 97.8091 36.2351H103.262L99.199 29.5373L96.5053 24.451H96.5024ZM131.056 10.9467C127.434 10.9467 125.124 12.5526 123.829 13.9099L123.399 14.3442L123.244 13.7527C122.866 12.2983 121.582 11.5011 119.654 11.5011H116.464L116.484 36.2265H123.554V24.831C123.554 23.7166 123.697 22.7508 123.995 21.8679C124.78 19.1962 126.975 17.536 129.717 17.536C131.924 17.536 132.787 18.699 132.787 21.6993V32.469C132.787 35.0293 133.976 36.2265 136.546 36.2265H139.91L139.899 20.4992C139.899 14.2528 136.841 10.9496 131.056 10.9496V10.9467ZM108.673 11.5096H105.323L105.346 30.6288V36.2351H108.919L109.045 36.2408L110.713 36.2351H112.369V36.2265H112.381L112.395 15.2672C112.395 12.7383 111.183 11.5125 108.676 11.5125L108.673 11.5096ZM64.7029 30.626C61.161 30.626 58.6938 27.8199 58.6938 23.8081C58.6938 19.7991 61.1611 16.9959 64.7058 16.9959C68.2592 16.9959 70.758 19.7991 70.758 23.8081C70.758 27.8828 68.3222 30.626 64.7058 30.626H64.7029ZM64.7029 11.0039C57.2007 11.0039 51.7561 16.3902 51.7561 23.8081C51.7561 31.2289 57.2009 36.6123 64.7058 36.6123C72.2223 36.6123 77.6955 31.2289 77.6955 23.8109C77.6955 16.3902 72.2223 11.0039 64.7058 11.0039" fill="#273B7D"/>
<path d="M218.573 30.269C215.031 30.269 212.561 27.463 212.561 23.4511C212.561 19.4422 215.031 16.639 218.573 16.639C222.132 16.639 224.628 19.4422 224.628 23.4511C224.628 27.5259 222.192 30.269 218.573 30.269ZM218.573 10.6469C211.071 10.6469 205.629 16.0332 205.629 23.4511C205.629 30.8719 211.071 36.2554 218.573 36.2554C226.092 36.2554 231.562 30.8719 231.562 23.454C231.562 16.0332 226.089 10.6469 218.573 10.6469Z" fill="#499FDD"/>
<path d="M157.154 29.1803C153.289 29.1803 151.913 25.8199 151.913 22.6681C151.913 21.2794 152.266 16.7561 156.785 16.7561C159.028 16.7561 162.017 17.3962 162.017 22.8996C162.017 28.0916 159.372 29.1803 157.154 29.1803ZM165.688 11.0869C164.347 11.0869 163.315 11.6213 162.797 12.5956L162.602 12.9728L162.275 12.6871C161.135 11.7041 159.089 10.5354 155.767 10.5354C149.157 10.5354 144.706 15.4874 144.706 22.851C144.706 30.2118 149.311 35.3552 155.899 35.3552C158.149 35.3552 159.928 34.8294 161.338 33.7665L161.883 33.3579V34.0436C161.883 37.3469 159.742 39.1699 155.859 39.1699C153.971 39.1699 152.254 38.7127 151.102 38.2955C149.606 37.844 148.724 38.2184 148.119 39.7185L147.558 41.1015L146.764 43.1246L147.254 43.3846C149.741 44.6991 152.976 45.4849 155.899 45.4849C161.917 45.4849 168.949 42.4131 168.949 33.7665L168.975 11.0869H165.688Z" fill="#273B7D"/>
<path d="M12.9661 29.9861L7.21201 29.9803V23.1225C7.21201 21.6538 7.78227 20.8937 9.04027 20.7165H12.9661C15.7658 20.7165 17.5768 22.4767 17.5797 25.3256C17.5768 28.2516 15.8117 29.9832 12.9661 29.9832V29.9861ZM7.21201 11.4812V9.67534C7.21201 8.09517 7.88259 7.34366 9.35264 7.24651H12.2985C14.8231 7.24651 16.3361 8.75238 16.3361 11.2755C16.3361 13.1957 15.2987 15.4388 12.3902 15.4388H7.21201V11.4812ZM20.3136 18.3277L19.2733 17.7448L20.1817 16.9704C21.2391 16.0646 23.0073 14.0272 23.0073 10.5126C23.0073 5.12914 18.8235 1.65448 12.3443 1.65448H4.10855C3.18185 1.68817 2.30373 2.0761 1.65607 2.73788C1.00841 3.39965 0.640905 4.28453 0.629745 5.20914V35.7552H12.4904C19.6916 35.7552 24.3397 31.8463 24.3397 25.7913C24.3397 22.531 22.8382 19.745 20.3136 18.3277Z" fill="#273B7D"/>
<path d="M263.139 10.6725C261.679 10.6779 260.24 11.0101 258.926 11.6446C257.613 12.2792 256.459 13.1999 255.55 14.3386L255.04 14.9844L254.639 14.2615C253.327 11.8812 251.075 10.6725 247.942 10.6725C244.656 10.6725 242.452 12.5013 241.429 13.5871L240.758 14.31L240.5 13.3585C240.128 11.9869 238.904 11.2354 237.053 11.2354H234.081L234.053 35.8666H240.801V24.994C240.801 24.0397 240.922 23.0995 241.16 22.1137C241.804 19.4849 243.575 16.6589 246.552 16.9418C248.386 17.1189 249.286 18.5333 249.286 21.2651V35.8666H256.084V24.994C256.084 23.8025 256.195 22.911 256.465 22.0194C257.009 19.5106 258.86 16.9389 261.732 16.9389C263.812 16.9389 264.58 18.1104 264.58 21.2651V32.2662C264.58 34.7522 265.692 35.8666 268.188 35.8666H271.363L271.369 20.1421C271.369 13.8586 268.595 10.6725 263.139 10.6725ZM201.717 27.3143C201.697 27.34 198.794 30.3918 194.969 30.3918C191.484 30.3918 187.965 28.2601 187.965 23.5024C187.965 19.3934 190.693 16.5217 194.602 16.5217C195.869 16.5217 197.313 16.9732 197.539 17.7361L197.571 17.8647C197.715 18.39 198.029 18.853 198.465 19.1821C198.9 19.5112 199.432 19.6879 199.978 19.6849L203.675 19.6906V16.4674C203.675 12.2155 198.25 10.6725 194.602 10.6725C186.796 10.6725 181.134 16.0902 181.134 23.5539C181.134 31.0118 186.733 36.4238 194.459 36.4238C201.159 36.4238 204.804 32.0319 204.838 31.9891L205.033 31.749L202.104 26.9057L201.717 27.3143Z" fill="#499FDD"/>
</g>
<defs>
<clipPath id="clip0_464_10256">
<rect width="272" height="46" fill="white"/>
</clipPath>
</defs>
</svg>
